<?xml version="1.0" encoding="UTF-8" standalone="no"?>
<!-- Created with Inkscape (http://www.inkscape.org/) -->

<svg
   width="7.8930583mm"
   height="7.9375mm"
   viewBox="0 0 7.8930583 7.9375"
   version="1.1"
   id="svg5"
   inkscape:version="1.1.1 (3bf5ae0d25, 2021-09-20)"
   sodipodi:docname="dark.svg"
   xmlns:inkscape="http://www.inkscape.org/namespaces/inkscape"
   xmlns:sodipodi="http://sodipodi.sourceforge.net/DTD/sodipodi-0.dtd"
   xmlns="http://www.w3.org/2000/svg"
   xmlns:svg="http://www.w3.org/2000/svg">
  <sodipodi:namedview
     id="namedview7"
     pagecolor="#505050"
     bordercolor="#ffffff"
     borderopacity="1"
     inkscape:pageshadow="0"
     inkscape:pageopacity="0"
     inkscape:pagecheckerboard="1"
     inkscape:document-units="mm"
     showgrid="true"
     inkscape:zoom="16"
     inkscape:cx="17.25"
     inkscape:cy="10.46875"
     inkscape:window-width="1920"
     inkscape:window-height="1057"
     inkscape:window-x="-8"
     inkscape:window-y="-8"
     inkscape:window-maximized="1"
     inkscape:current-layer="layer1"
     showguides="false">
    <inkscape:grid
       type="xygrid"
       id="grid824"
       originx="-0.044441731"
       originy="0" />
  </sodipodi:namedview>
  <defs
     id="defs2" />
  <g
     inkscape:label="Layer 1"
     inkscape:groupmode="layer"
     id="layer1"
     transform="translate(-0.04444173)">
    <path
       id="path2499-5-7"
       style="fill:#ffffff;fill-opacity:1;stroke:none;stroke-width:0.0377953;stroke-linecap:round;stroke-linejoin:round;stroke-miterlimit:4;stroke-dasharray:none;stroke-opacity:1;paint-order:stroke markers fill"
       d="M 15,0 A 15,15 0 0 0 14.400391,0.02148438 13,13 0 0 1 18,9 13,13 0 0 1 5,22 13,13 0 0 1 1.4863281,21.505859 a 15,15 0 0 0 1.4140625,2.341797 15,15 0 0 0 3.7910156,3.59375 15,15 0 0 0 1.140625,0.697266 A 15,15 0 0 0 15,30 a 15,15 0 0 0 2.896484,-0.318359 15,15 0 0 0 1.546875,-0.371094 15,15 0 0 0 0.800782,-0.296875 15,15 0 0 0 1.285156,-0.533203 15,15 0 0 0 2.722656,-1.716797 15,15 0 0 0 0.970703,-0.828125 15,15 0 0 0 0.712891,-0.712891 15,15 0 0 0 0.828125,-0.970703 15,15 0 0 0 0.574219,-0.767578 15,15 0 0 0 0.693359,-1.130859 15,15 0 0 0 0.449219,-0.824219 15,15 0 0 0 0.533203,-1.285156 15,15 0 0 0 0.296875,-0.800782 15,15 0 0 0 0.371094,-1.546875 A 15,15 0 0 0 30,15 15,15 0 0 0 28.695312,8.9101562 15,15 0 0 0 28.546875,8.5917969 15,15 0 0 0 27.650391,6.9492188 15,15 0 0 0 27.521484,6.7597656 15,15 0 0 0 26.345703,5.1914062 15,15 0 0 0 26.330078,5.171875 15,15 0 0 0 17.109375,0.15039062 15,15 0 0 1 18.03125,1.5957031 15,15 0 0 0 17.109375,0.15039062 15,15 0 0 0 15,0 Z M 14.386719,0.02148438 A 15,15 0 0 0 12.15625,0.28320312 15,15 0 0 1 14.386719,0.02148438 Z m -2.291016,0.2734375 A 15,15 0 0 0 9.9277344,0.89453125 15,15 0 0 1 12.095703,0.29492188 Z m -2.1992186,0.609375 A 15,15 0 0 0 7.8574219,1.8222656 15,15 0 0 1 9.8964844,0.90429688 Z M 7.796875,1.8535156 A 15,15 0 0 0 6,3.0136719 v 0.00391 A 15,15 0 0 1 7.796875,1.8535156 Z m 10.4375,0.1171875 A 15,15 0 0 1 18.509766,2.4824219 13,13 0 0 1 28,15 13,13 0 0 1 15,28 13,13 0 0 1 5.609375,23.978516 15,15 0 0 1 5,24 15,15 0 0 0 20,9 15,15 0 0 0 18.234375,1.9707031 Z M 2.3242188,7 A 15,15 0 0 0 1.5839844,8.3085938 15,15 0 0 1 2.3300781,7 Z M 27.746094,7.0957031 A 15,15 0 0 1 28.324219,8.1132812 15,15 0 0 0 27.746094,7.0957031 Z M 1.546875,8.3789062 A 15,15 0 0 0 0.70703125,10.458984 15,15 0 0 1 1.546875,8.3789062 Z M 0.69726562,10.490234 a 15,15 0 0 0 -0.51171874,2.181641 15,15 0 0 1 0.51171874,-2.181641 z m -0.52929687,6.746094 a 15,15 0 0 0 0.49804687,2.183594 15,15 0 0 1 -0.49804687,-2.183594 z m 0.49804687,2.185547 A 15,15 0 0 0 1.4746094,21.480469 15,15 0 0 1 0.66601562,19.421875 Z"
       transform="scale(0.26458333)" />
  </g>
</svg>
