<?xml version="1.0" encoding="UTF-8" standalone="no"?>
<!-- Created with Inkscape (http://www.inkscape.org/) -->

<svg
   width="7.9375mm"
   height="7.9375mm"
   viewBox="0 0 7.9375 7.9375"
   version="1.1"
   id="svg5"
   inkscape:version="1.1.1 (3bf5ae0d25, 2021-09-20)"
   sodipodi:docname="light.svg"
   xmlns:inkscape="http://www.inkscape.org/namespaces/inkscape"
   xmlns:sodipodi="http://sodipodi.sourceforge.net/DTD/sodipodi-0.dtd"
   xmlns="http://www.w3.org/2000/svg"
   xmlns:svg="http://www.w3.org/2000/svg">
  <sodipodi:namedview
     id="namedview7"
     pagecolor="#505050"
     bordercolor="#ffffff"
     borderopacity="1"
     inkscape:pageshadow="0"
     inkscape:pageopacity="0"
     inkscape:pagecheckerboard="1"
     inkscape:document-units="mm"
     showgrid="true"
     inkscape:zoom="24.858361"
     inkscape:cx="14.441821"
     inkscape:cy="12.933274"
     inkscape:window-width="1920"
     inkscape:window-height="1057"
     inkscape:window-x="-8"
     inkscape:window-y="-8"
     inkscape:window-maximized="1"
     inkscape:current-layer="layer1">
    <inkscape:grid
       type="xygrid"
       id="grid824"
       originx="4.6999441e-16"
       originy="4.6999441e-16" />
  </sodipodi:namedview>
  <defs
     id="defs2" />
  <g
     inkscape:label="Layer 1"
     inkscape:groupmode="layer"
     id="layer1">
    <path
       id="path848"
       style="fill:#000000;fill-opacity:1;stroke-width:1.88976"
       d="M 15,0 A 0.99999994,0.99999994 0 0 0 14,1 V 4 A 0.99999994,0.99999994 0 0 0 15,5 0.99999994,0.99999994 0 0 0 16,4 0.99999994,0.99999994 0 0 0 16,3.99805 0.99999994,0.99999994 0 0 0 16,3.9961 0.99999994,0.99999994 0 0 0 16,3.99415 0.99999994,0.99999994 0 0 0 16,3.9922 0.99999994,0.99999994 0 0 0 16,3.99025 0.99999994,0.99999994 0 0 0 16,3.9883 0.99999994,0.99999994 0 0 0 16,3.98635 0.99999994,0.99999994 0 0 0 16,3.9844 0.99999994,0.99999994 0 0 0 16,3.98245 0.99999994,0.99999994 0 0 0 16,3.9805 0.99999994,0.99999994 0 0 0 16,3.97855 0.99999994,0.99999994 0 0 0 16,3.9766 0.99999994,0.99999994 0 0 0 16,3.97465 V 1 A 0.99999994,0.99999994 0 0 0 15,0 Z M 1,14 a 0.99999994,0.99999994 0 0 0 -1,1 0.99999994,0.99999994 0 0 0 1,1 H 4 A 0.99999994,0.99999994 0 0 0 5,15 0.99999994,0.99999994 0 0 0 4,14 H 1.0253906 A 0.99999994,0.99999994 0 0 0 1,14 Z m 25,0 a 0.99999994,0.99999994 0 0 0 -1,1 0.99999994,0.99999994 0 0 0 1,1 h 3 a 0.99999994,0.99999994 0 0 0 1,-1 0.99999994,0.99999994 0 0 0 -1,-1 H 26.025391 A 0.99999994,0.99999994 0 0 0 26,14 Z M 15,25 a 0.99999995,0.99999995 0 0 0 -1,1 v 3 a 0.99999995,0.99999995 0 0 0 1,1 0.99999995,0.99999995 0 0 0 1,-1 0.99999995,0.99999995 0 0 0 0,-0.02539 V 26 a 0.99999995,0.99999995 0 0 0 -1,-1 z"
       transform="scale(0.26458333)" />
    <path
       id="path1356"
       style="fill:#000000;fill-opacity:1;stroke-width:1.88976"
       d="m 15,7 a 7.9999996,7.9999996 0 0 0 -8,8 7.9999996,7.9999996 0 0 0 8,8 7.9999996,7.9999996 0 0 0 8,-8 7.9999996,7.9999996 0 0 0 -8,-8 z m 0,2 a 5.9999999,5.9999999 0 0 1 6,6 5.9999999,5.9999999 0 0 1 -6,6 5.9999999,5.9999999 0 0 1 -6,-6 5.9999999,5.9999999 0 0 1 6,-6 z"
       transform="scale(0.26458333)" />
    <path
       id="path848-2"
       style="fill:#000000;fill-opacity:1;stroke:none;stroke-width:0.499999;stroke-opacity:1"
       d="m 6.77508,1.16242 a 0.26458332,0.26458332 0 0 0 -0.3741774,-1e-7 l -0.561266,0.561266 a 0.26458332,0.26458332 0 0 0 10e-8,0.3741774 0.26458332,0.26458332 0 0 0 0.3741773,0 0.26458332,0.26458332 0 0 0 3.653e-4,-3.654e-4 0.26458332,0.26458332 0 0 0 3.655e-4,-3.654e-4 0.26458332,0.26458332 0 0 0 3.654e-4,-3.654e-4 0.26458332,0.26458332 0 0 0 3.654e-4,-3.654e-4 0.26458332,0.26458332 0 0 0 3.654e-4,-3.654e-4 0.26458332,0.26458332 0 0 0 3.654e-4,-3.655e-4 0.26458332,0.26458332 0 0 0 3.654e-4,-3.653e-4 0.26458332,0.26458332 0 0 0 3.654e-4,-3.655e-4 0.26458332,0.26458332 0 0 0 3.655e-4,-3.654e-4 0.26458332,0.26458332 0 0 0 3.653e-4,-3.654e-4 0.26458332,0.26458332 0 0 0 3.655e-4,-3.654e-4 0.26458332,0.26458332 0 0 0 3.654e-4,-3.654e-4 0.26458332,0.26458332 0 0 0 3.654e-4,-3.654e-4 L 6.77508,1.5365973 a 0.26458332,0.26458332 0 0 0 0,-0.3741773 z m -5.2384827,-1e-7 a 0.26458332,0.26458332 0 0 0 -0.3741773,0 0.26458332,0.26458332 0 0 0 -1e-7,0.3741774 l 0.561266,0.561266 a 0.26458332,0.26458332 0 0 0 0.3741774,-1e-7 0.26458332,0.26458332 0 0 0 0,-0.3741773 L 1.5413476,1.1671702 a 0.26458332,0.26458332 0 0 0 -0.00475,-0.00475 z M 6.213814,5.8396366 a 0.26458332,0.26458332 0 0 0 -0.3741774,-1e-7 0.26458332,0.26458332 0 0 0 0,0.3741775 l 0.561266,0.561266 a 0.26458332,0.26458332 0 0 0 0.3741774,-1e-7 0.26458332,0.26458332 0 0 0 0,-0.3741773 L 6.2185643,5.844387 a 0.26458332,0.26458332 0 0 0 -0.00475,-0.00475 z m -4.1159506,0 a 0.26458332,0.26458332 0 0 0 -0.3741775,0 l -0.561266,0.561266 a 0.26458332,0.26458332 0 0 0 1e-7,0.3741774 0.26458332,0.26458332 0 0 0 0.3741773,0 0.26458332,0.26458332 0 0 0 0.00475,-0.00475 l 0.556516,-0.556516 a 0.26458332,0.26458332 0 0 0 10e-8,-0.3741774 z" />
  </g>
</svg>
